<svg xmlns="http://www.w3.org/2000/svg" width="1000" height="400" viewBox="0 0 1000 400">
  <defs>
    <linearGradient id="sky" x1="0%" y1="0%" x2="0%" y2="100%">
      <stop offset="0%" stop-color="#0B1021" />
      <stop offset="100%" stop-color="#2a1b38" />
    </linearGradient>
    <linearGradient id="building" x1="0%" y1="0%" x2="0%" y2="100%">
      <stop offset="0%" stop-color="#181329" />
      <stop offset="100%" stop-color="#0a0812" />
    </linearGradient>
    <style>
      .text-title { font-family: -apple-system, BlinkMacSystemFont, "Segoe UI", Helvetica, Arial, sans-serif; font-size: 16px; font-weight: bold; fill: #E1E4E8; }
      .text-subtitle { font-family: -apple-system, BlinkMacSystemFont, "Segoe UI", Helvetica, Arial, sans-serif; font-size: 12px; fill: #8B949E; }
      .text-legend { font-family: -apple-system, BlinkMacSystemFont, "Segoe UI", Helvetica, Arial, sans-serif; font-size: 10px; fill: #8B949E; }
      .live-tag { font-family: -apple-system, BlinkMacSystemFont, "Segoe UI", Helvetica, Arial, sans-serif; font-size: 10px; font-weight: bold; fill: #238636; }
    </style>
  </defs>
  <rect width="1000" height="400" fill="url(#sky)" /><rect x="0" y="280" width="1000" height="120" fill="#0D1117" /><line x1="0" y1="280" x2="1000" y2="280" stroke="#30363D" stroke-width="1" /><circle cx="200" cy="80" r="16" fill="#F9E79F" /><circle cx="206" cy="76" r="16" fill="#0E1222" /><circle cx="100" cy="50" r="1" fill="#FFFFFF" opacity="0.5" /><circle cx="300" cy="120" r="1.5" fill="#FFFFFF" opacity="0.5" /><circle cx="500" cy="40" r="1" fill="#FFFFFF" opacity="0.5" /><circle cx="700" cy="90" r="2" fill="#FFFFFF" opacity="0.5" /><circle cx="850" cy="60" r="1" fill="#FFFFFF" opacity="0.5" /><circle cx="950" cy="140" r="1.5" fill="#FFFFFF" opacity="0.5" /><circle cx="400" cy="150" r="1" fill="#FFFFFF" opacity="0.5" /><circle cx="600" cy="100" r="1.5" fill="#FFFFFF" opacity="0.5" /><circle cx="800" cy="30" r="1" fill="#FFFFFF" opacity="0.5" /><rect x="275" y="260" width="14" height="20" fill="url(#building)" stroke="#30363D" stroke-width="0.5" rx="1" ry="1"/><rect x="278" y="270" width="2.5" height="4" fill="#161B22" rx="0.5" /><rect x="282.5" y="270" width="2.5" height="4" fill="#161B22" rx="0.5" /><rect x="293" y="250" width="14" height="30" fill="url(#building)" stroke="#30363D" stroke-width="0.5" rx="1" ry="1"/><rect x="296" y="270" width="2.5" height="4" fill="#0E4429" rx="0.5" /><rect x="300.5" y="270" width="2.5" height="4" fill="#161B22" rx="0.5" /><rect x="296" y="263" width="2.5" height="4" fill="#161B22" rx="0.5" /><rect x="300.5" y="263" width="2.5" height="4" fill="#161B22" rx="0.5" /><rect x="296" y="256" width="2.5" height="4" fill="#161B22" rx="0.5" /><rect x="300.5" y="256" width="2.5" height="4" fill="#161B22" rx="0.5" /><rect x="311" y="232.63157894736844" width="14" height="47.368421052631575" fill="url(#building)" stroke="#30363D" stroke-width="0.5" rx="1" ry="1"/><rect x="314" y="270" width="2.5" height="4" fill="#39D353" rx="0.5" /><rect x="318.5" y="270" width="2.5" height="4" fill="#161B22" rx="0.5" /><rect x="314" y="263" width="2.5" height="4" fill="#161B22" rx="0.5" /><rect x="318.5" y="263" width="2.5" height="4" fill="#161B22" rx="0.5" /><rect x="314" y="256" width="2.5" height="4" fill="#161B22" rx="0.5" /><rect x="318.5" y="256" width="2.5" height="4" fill="#161B22" rx="0.5" /><rect x="314" y="249" width="2.5" height="4" fill="#161B22" rx="0.5" /><rect x="329" y="260" width="14" height="20" fill="url(#building)" stroke="#30363D" stroke-width="0.5" rx="1" ry="1"/><rect x="332" y="270" width="2.5" height="4" fill="#161B22" rx="0.5" /><text x="336" y="295" class="text-legend" text-anchor="middle">Mar</text><rect x="336.5" y="270" width="2.5" height="4" fill="#161B22" rx="0.5" /><rect x="347" y="260" width="14" height="20" fill="url(#building)" stroke="#30363D" stroke-width="0.5" rx="1" ry="1"/><rect x="350" y="270" width="2.5" height="4" fill="#161B22" rx="0.5" /><rect x="354.5" y="270" width="2.5" height="4" fill="#161B22" rx="0.5" /><rect x="365" y="260" width="14" height="20" fill="url(#building)" stroke="#30363D" stroke-width="0.5" rx="1" ry="1"/><rect x="368" y="270" width="2.5" height="4" fill="#161B22" rx="0.5" /><rect x="372.5" y="270" width="2.5" height="4" fill="#161B22" rx="0.5" /><rect x="383" y="260" width="14" height="20" fill="url(#building)" stroke="#30363D" stroke-width="0.5" rx="1" ry="1"/><rect x="386" y="270" width="2.5" height="4" fill="#161B22" rx="0.5" /><rect x="390.5" y="270" width="2.5" height="4" fill="#161B22" rx="0.5" /><rect x="401" y="260" width="14" height="20" fill="url(#building)" stroke="#30363D" stroke-width="0.5" rx="1" ry="1"/><rect x="404" y="270" width="2.5" height="4" fill="#161B22" rx="0.5" /><rect x="408.5" y="270" width="2.5" height="4" fill="#161B22" rx="0.5" /><rect x="419" y="250" width="14" height="30" fill="url(#building)" stroke="#30363D" stroke-width="0.5" rx="1" ry="1"/><rect x="422" y="270" width="2.5" height="4" fill="#161B22" rx="0.5" /><text x="426" y="295" class="text-legend" text-anchor="middle">Apr</text><rect x="426.5" y="270" width="2.5" height="4" fill="#0E4429" rx="0.5" /><rect x="422" y="263" width="2.5" height="4" fill="#161B22" rx="0.5" /><rect x="426.5" y="263" width="2.5" height="4" fill="#161B22" rx="0.5" /><rect x="422" y="256" width="2.5" height="4" fill="#161B22" rx="0.5" /><rect x="426.5" y="256" width="2.5" height="4" fill="#161B22" rx="0.5" /><rect x="437" y="245.26315789473685" width="14" height="34.73684210526316" fill="url(#building)" stroke="#30363D" stroke-width="0.5" rx="1" ry="1"/><rect x="440" y="270" width="2.5" height="4" fill="#161B22" rx="0.5" /><rect x="444.5" y="270" width="2.5" height="4" fill="#161B22" rx="0.5" /><rect x="440" y="263" width="2.5" height="4" fill="#161B22" rx="0.5" /><rect x="444.5" y="263" width="2.5" height="4" fill="#161B22" rx="0.5" /><rect x="440" y="256" width="2.5" height="4" fill="#161B22" rx="0.5" /><rect x="444.5" y="256" width="2.5" height="4" fill="#0E4429" rx="0.5" /><rect x="455" y="250" width="14" height="30" fill="url(#building)" stroke="#30363D" stroke-width="0.5" rx="1" ry="1"/><rect x="458" y="270" width="2.5" height="4" fill="#161B22" rx="0.5" /><rect x="462.5" y="270" width="2.5" height="4" fill="#161B22" rx="0.5" /><rect x="458" y="263" width="2.5" height="4" fill="#161B22" rx="0.5" /><rect x="462.5" y="263" width="2.5" height="4" fill="#161B22" rx="0.5" /><rect x="458" y="256" width="2.5" height="4" fill="#161B22" rx="0.5" /><rect x="462.5" y="256" width="2.5" height="4" fill="#0E4429" rx="0.5" /><rect x="473" y="122.10526315789474" width="14" height="157.89473684210526" fill="url(#building)" stroke="#30363D" stroke-width="0.5" rx="1" ry="1"/><rect x="476" y="270" width="2.5" height="4" fill="#0E4429" rx="0.5" /><rect x="480.5" y="270" width="2.5" height="4" fill="#39D353" rx="0.5" /><rect x="476" y="263" width="2.5" height="4" fill="#161B22" rx="0.5" /><rect x="480.5" y="263" width="2.5" height="4" fill="#006D32" rx="0.5" /><rect x="476" y="256" width="2.5" height="4" fill="#0E4429" rx="0.5" /><rect x="480.5" y="256" width="2.5" height="4" fill="#26A641" rx="0.5" /><rect x="476" y="249" width="2.5" height="4" fill="#39D353" rx="0.5" /><rect x="491" y="250" width="14" height="30" fill="url(#building)" stroke="#30363D" stroke-width="0.5" rx="1" ry="1"/><rect x="494" y="270" width="2.5" height="4" fill="#161B22" rx="0.5" /><text x="498" y="295" class="text-legend" text-anchor="middle">May</text><rect x="498.5" y="270" width="2.5" height="4" fill="#0E4429" rx="0.5" /><rect x="494" y="263" width="2.5" height="4" fill="#0E4429" rx="0.5" /><rect x="498.5" y="263" width="2.5" height="4" fill="#161B22" rx="0.5" /><rect x="494" y="256" width="2.5" height="4" fill="#0E4429" rx="0.5" /><rect x="498.5" y="256" width="2.5" height="4" fill="#0E4429" rx="0.5" /><rect x="509" y="137.89473684210526" width="14" height="142.10526315789474" fill="url(#building)" stroke="#30363D" stroke-width="0.5" rx="1" ry="1"/><rect x="512" y="270" width="2.5" height="4" fill="#0E4429" rx="0.5" /><rect x="516.5" y="270" width="2.5" height="4" fill="#0E4429" rx="0.5" /><rect x="512" y="263" width="2.5" height="4" fill="#26A641" rx="0.5" /><rect x="516.5" y="263" width="2.5" height="4" fill="#0E4429" rx="0.5" /><rect x="512" y="256" width="2.5" height="4" fill="#39D353" rx="0.5" /><rect x="516.5" y="256" width="2.5" height="4" fill="#39D353" rx="0.5" /><rect x="512" y="249" width="2.5" height="4" fill="#0E4429" rx="0.5" /><rect x="527" y="250" width="14" height="30" fill="url(#building)" stroke="#30363D" stroke-width="0.5" rx="1" ry="1"/><rect x="530" y="270" width="2.5" height="4" fill="#0E4429" rx="0.5" /><rect x="534.5" y="270" width="2.5" height="4" fill="#0E4429" rx="0.5" /><rect x="530" y="263" width="2.5" height="4" fill="#0E4429" rx="0.5" /><rect x="534.5" y="263" width="2.5" height="4" fill="#0E4429" rx="0.5" /><rect x="530" y="256" width="2.5" height="4" fill="#161B22" rx="0.5" /><rect x="534.5" y="256" width="2.5" height="4" fill="#161B22" rx="0.5" /><rect x="545" y="250" width="14" height="30" fill="url(#building)" stroke="#30363D" stroke-width="0.5" rx="1" ry="1"/><rect x="548" y="270" width="2.5" height="4" fill="#006D32" rx="0.5" /><rect x="552.5" y="270" width="2.5" height="4" fill="#161B22" rx="0.5" /><rect x="548" y="263" width="2.5" height="4" fill="#0E4429" rx="0.5" /><rect x="552.5" y="263" width="2.5" height="4" fill="#161B22" rx="0.5" /><rect x="548" y="256" width="2.5" height="4" fill="#0E4429" rx="0.5" /><rect x="552.5" y="256" width="2.5" height="4" fill="#161B22" rx="0.5" /><rect x="563" y="248.42105263157896" width="14" height="31.57894736842105" fill="url(#building)" stroke="#30363D" stroke-width="0.5" rx="1" ry="1"/><rect x="566" y="270" width="2.5" height="4" fill="#161B22" rx="0.5" /><rect x="570.5" y="270" width="2.5" height="4" fill="#0E4429" rx="0.5" /><rect x="566" y="263" width="2.5" height="4" fill="#0E4429" rx="0.5" /><rect x="570.5" y="263" width="2.5" height="4" fill="#0E4429" rx="0.5" /><rect x="566" y="256" width="2.5" height="4" fill="#0E4429" rx="0.5" /><rect x="570.5" y="256" width="2.5" height="4" fill="#0E4429" rx="0.5" /><rect x="581" y="242.10526315789474" width="14" height="37.89473684210526" fill="url(#building)" stroke="#30363D" stroke-width="0.5" rx="1" ry="1"/><rect x="584" y="270" width="2.5" height="4" fill="#0E4429" rx="0.5" /><text x="588" y="295" class="text-legend" text-anchor="middle">Jun</text><rect x="588.5" y="270" width="2.5" height="4" fill="#0E4429" rx="0.5" /><rect x="584" y="263" width="2.5" height="4" fill="#0E4429" rx="0.5" /><rect x="588.5" y="263" width="2.5" height="4" fill="#0E4429" rx="0.5" /><rect x="584" y="256" width="2.5" height="4" fill="#161B22" rx="0.5" /><rect x="588.5" y="256" width="2.5" height="4" fill="#0E4429" rx="0.5" /><rect x="584" y="249" width="2.5" height="4" fill="#0E4429" rx="0.5" /><rect x="599" y="182.10526315789474" width="14" height="97.89473684210527" fill="url(#building)" stroke="#30363D" stroke-width="0.5" rx="1" ry="1"/><rect x="602" y="270" width="2.5" height="4" fill="#0E4429" rx="0.5" /><rect x="606.5" y="270" width="2.5" height="4" fill="#0E4429" rx="0.5" /><rect x="602" y="263" width="2.5" height="4" fill="#39D353" rx="0.5" /><rect x="606.5" y="263" width="2.5" height="4" fill="#0E4429" rx="0.5" /><rect x="602" y="256" width="2.5" height="4" fill="#006D32" rx="0.5" /><rect x="606.5" y="256" width="2.5" height="4" fill="#0E4429" rx="0.5" /><rect x="602" y="249" width="2.5" height="4" fill="#006D32" rx="0.5" /><rect x="617" y="150.52631578947367" width="14" height="129.47368421052633" fill="url(#building)" stroke="#30363D" stroke-width="0.5" rx="1" ry="1"/><rect x="620" y="270" width="2.5" height="4" fill="#006D32" rx="0.5" /><rect x="624.5" y="270" width="2.5" height="4" fill="#006D32" rx="0.5" /><rect x="620" y="263" width="2.5" height="4" fill="#006D32" rx="0.5" /><rect x="624.5" y="263" width="2.5" height="4" fill="#39D353" rx="0.5" /><rect x="620" y="256" width="2.5" height="4" fill="#006D32" rx="0.5" /><rect x="624.5" y="256" width="2.5" height="4" fill="#26A641" rx="0.5" /><rect x="620" y="249" width="2.5" height="4" fill="#0E4429" rx="0.5" /><rect x="635" y="134.73684210526318" width="14" height="145.26315789473682" fill="url(#building)" stroke="#30363D" stroke-width="0.5" rx="1" ry="1"/><rect x="638" y="270" width="2.5" height="4" fill="#0E4429" rx="0.5" /><rect x="642.5" y="270" width="2.5" height="4" fill="#39D353" rx="0.5" /><rect x="638" y="263" width="2.5" height="4" fill="#0E4429" rx="0.5" /><rect x="642.5" y="263" width="2.5" height="4" fill="#26A641" rx="0.5" /><rect x="638" y="256" width="2.5" height="4" fill="#26A641" rx="0.5" /><rect x="642.5" y="256" width="2.5" height="4" fill="#006D32" rx="0.5" /><rect x="638" y="249" width="2.5" height="4" fill="#26A641" rx="0.5" /><rect x="653" y="191.57894736842104" width="14" height="88.42105263157895" fill="url(#building)" stroke="#30363D" stroke-width="0.5" rx="1" ry="1"/><rect x="656" y="270" width="2.5" height="4" fill="#0E4429" rx="0.5" /><text x="660" y="295" class="text-legend" text-anchor="middle">Jul</text><rect x="660.5" y="270" width="2.5" height="4" fill="#006D32" rx="0.5" /><rect x="656" y="263" width="2.5" height="4" fill="#0E4429" rx="0.5" /><rect x="660.5" y="263" width="2.5" height="4" fill="#006D32" rx="0.5" /><rect x="656" y="256" width="2.5" height="4" fill="#0E4429" rx="0.5" /><rect x="660.5" y="256" width="2.5" height="4" fill="#006D32" rx="0.5" /><rect x="656" y="249" width="2.5" height="4" fill="#006D32" rx="0.5" /><rect x="671" y="223.1578947368421" width="14" height="56.84210526315789" fill="url(#building)" stroke="#30363D" stroke-width="0.5" rx="1" ry="1"/><rect x="674" y="270" width="2.5" height="4" fill="#006D32" rx="0.5" /><rect x="678.5" y="270" width="2.5" height="4" fill="#0E4429" rx="0.5" /><rect x="674" y="263" width="2.5" height="4" fill="#26A641" rx="0.5" /><rect x="678.5" y="263" width="2.5" height="4" fill="#161B22" rx="0.5" /><rect x="674" y="256" width="2.5" height="4" fill="#161B22" rx="0.5" /><rect x="678.5" y="256" width="2.5" height="4" fill="#0E4429" rx="0.5" /><rect x="674" y="249" width="2.5" height="4" fill="#0E4429" rx="0.5" /><rect x="689" y="100" width="14" height="180" fill="url(#building)" stroke="#30363D" stroke-width="0.5" rx="1" ry="1"/><rect x="692" y="270" width="2.5" height="4" fill="#0E4429" rx="0.5" /><rect x="696.5" y="270" width="2.5" height="4" fill="#39D353" rx="0.5" /><rect x="692" y="263" width="2.5" height="4" fill="#39D353" rx="0.5" /><rect x="696.5" y="263" width="2.5" height="4" fill="#39D353" rx="0.5" /><rect x="692" y="256" width="2.5" height="4" fill="#0E4429" rx="0.5" /><rect x="696.5" y="256" width="2.5" height="4" fill="#0E4429" rx="0.5" /><rect x="692" y="249" width="2.5" height="4" fill="#26A641" rx="0.5" /><rect x="707" y="226.31578947368422" width="14" height="53.68421052631579" fill="url(#building)" stroke="#30363D" stroke-width="0.5" rx="1" ry="1"/><rect x="710" y="270" width="2.5" height="4" fill="#006D32" rx="0.5" /><rect x="714.5" y="270" width="2.5" height="4" fill="#0E4429" rx="0.5" /><rect x="710" y="263" width="2.5" height="4" fill="#006D32" rx="0.5" /><rect x="714.5" y="263" width="2.5" height="4" fill="#006D32" rx="0.5" /><rect x="710" y="256" width="2.5" height="4" fill="#0E4429" rx="0.5" /><rect x="714.5" y="256" width="2.5" height="4" fill="#0E4429" rx="0.5" /><rect x="710" y="249" width="2.5" height="4" fill="#161B22" rx="0.5" /><text x="275" y="330" class="text-title">🏙 My Coding City</text><rect x="415" y="318" width="38" height="16" fill="#238636" fill-opacity="0.2" stroke="#238636" stroke-width="1" rx="8" /><text x="434" y="330" class="live-tag" text-anchor="middle">LIVE</text><text x="275" y="348" class="text-subtitle">A city that grows with my contributions</text><text x="525" y="330" class="text-legend">Less activity</text><rect x="590" y="322" width="9" height="9" fill="#161B22" rx="2" /><rect x="602" y="322" width="9" height="9" fill="#0E4429" rx="2" /><rect x="614" y="322" width="9" height="9" fill="#006D32" rx="2" /><rect x="626" y="322" width="9" height="9" fill="#26A641" rx="2" /><rect x="638" y="322" width="9" height="9" fill="#39D353" rx="2" /><text x="655" y="330" class="text-legend">More activity</text><text x="275" y="375" class="text-legend">Each building represents a week (6 months). Each window represents a day.</text><text x="275" y="388" class="text-legend">The brighter the window, the more commits that day.</text><text x="725" y="388" class="text-legend" text-anchor="end">Last updated: Sat, 01 Aug 2026 04:14:35 GMT</text></svg>